<?xml version="1.0" encoding="UTF-8"?>
<svg version="1.1" xmlns="http://www.w3.org/2000/svg" width="515" height="484">
<path d="M0 0 C0.99 0 1.98 0 3 0 C3.21003484 4.42337455 2.67144551 7.54768002 0.98828125 11.6328125 C0.55966797 12.68726563 0.13105469 13.74171875 -0.31054688 14.828125 C-0.76494141 15.91609375 -1.21933594 17.0040625 -1.6875 18.125 C-2.12255859 19.18976562 -2.55761719 20.25453125 -3.00585938 21.3515625 C-4.74876009 25.60682231 -6.51555447 29.85153 -8.30273438 34.08837891 C-11.08903376 40.70851497 -13.68673266 47.36916836 -16.125 54.125 C-16.45886719 55.03636719 -16.79273438 55.94773438 -17.13671875 56.88671875 C-19.01095079 62.05371923 -20.71268536 67.238015 -22.25830078 72.51220703 C-23.01526488 75.05120116 -23.82301296 77.56841664 -24.6484375 80.0859375 C-28.34119826 91.37308394 -31.58835948 102.66921607 -34.32788086 114.22387695 C-34.99996976 116.9998751 -35.70189845 119.76757473 -36.40658569 122.53544617 C-38.68129557 131.50098243 -40.67029474 140.50945056 -42.5625 149.5625 C-42.85586532 150.95252769 -43.14948496 152.34250173 -43.44335938 153.73242188 C-44.30558177 157.81956126 -45.15474481 161.90932249 -46 166 C-46.20662262 166.99432037 -46.20662262 166.99432037 -46.41741943 168.00872803 C-48.03522804 175.81507977 -49.49443941 183.59111364 -50.5 191.5 C-50.7498575 193.42449767 -50.99986173 195.3489763 -51.25 197.2734375 C-51.37375 198.23475586 -51.4975 199.19607422 -51.625 200.18652344 C-51.97179823 202.78841327 -52.35320579 205.38190037 -52.75 207.9765625 C-54.72899127 221.30966233 -55.71883745 234.68462335 -56.625 248.125 C-56.68743896 249.04895569 -56.74987793 249.97291138 -56.81420898 250.92486572 C-58.60909933 277.59504608 -58.60909933 277.59504608 -59.0625 304.3125 C-59.05573242 305.88741211 -59.05573242 305.88741211 -59.04882812 307.49414062 C-59.03740336 309.99616511 -59.02123348 312.4980432 -59 315 C-58.58041016 313.74509766 -58.58041016 313.74509766 -58.15234375 312.46484375 C-53.63900985 299.36021187 -47.88196475 287.0434383 -41 275 C-40.5875 274.25234375 -40.175 273.5046875 -39.75 272.734375 C-36.29501671 266.68815424 -32.29053043 261.03857881 -28.25 255.375 C-27.67048584 254.55572021 -27.09097168 253.73644043 -26.49389648 252.89233398 C-25.94419189 252.13122314 -25.3944873 251.3701123 -24.828125 250.5859375 C-24.3321582 249.8954834 -23.83619141 249.2050293 -23.32519531 248.49365234 C-22.88788086 248.00074707 -22.45056641 247.5078418 -22 247 C-21.34 247 -20.68 247 -20 247 C-19.690625 246.38125 -19.38125 245.7625 -19.0625 245.125 C-18.375 243.75 -17.6875 242.375 -17 241 C-16.34 241 -15.68 241 -15 241 C-14.64421875 240.15743652 -14.64421875 240.15743652 -14.28125 239.29785156 C-12.70680643 236.47417342 -10.78315455 234.52385158 -8.5 232.234375 C-7.613125 231.34492188 -6.72625 230.45546875 -5.8125 229.5390625 C-4.884375 228.61867187 -3.95625 227.69828125 -3 226.75 C-2.071875 225.81414062 -1.14375 224.87828125 -0.1875 223.9140625 C0.699375 223.02976563 1.58625 222.14546875 2.5 221.234375 C3.3146875 220.42194336 4.129375 219.60951172 4.96875 218.77246094 C7 217 7 217 9 217 C9 216.34 9 215.68 9 215 C11.06710426 213.20750375 13.14015387 211.53164152 15.3125 209.875 C15.94824951 209.38435059 16.58399902 208.89370117 17.23901367 208.38818359 C19.15310509 206.91706008 21.07505349 205.45688057 23 204 C24.5159375 202.84757812 24.5159375 202.84757812 26.0625 201.671875 C30.76465005 198.17197922 35.46928204 195.0107604 40.6484375 192.265625 C43.33721136 190.81851083 45.94235296 189.25535079 48.5625 187.6875 C55.86586943 183.4218152 63.37160055 179.64393067 71 176 C72.08788818 175.47889648 72.08788818 175.47889648 73.19775391 174.94726562 C83.88927788 169.87681682 94.55845556 166.01245727 106 163 C106.33 164.32 106.66 165.64 107 167 C106.49251221 167.34144043 105.98502441 167.68288086 105.4621582 168.03466797 C91.55978047 177.40970412 78.13832826 187.02224397 65.57885742 198.15454102 C63.06121224 200.36347015 61.21279595 201.92906802 58 203 C57.26676204 205.01508358 57.26676204 205.01508358 57 207 C56.01 207 55.02 207 54 207 C54 207.66 54 208.32 54 209 C53.34 209 52.68 209 52 209 C52 209.66 52 210.32 52 211 C51.34 211 50.68 211 50 211 C50 211.66 50 212.32 50 213 C49.34 213 48.68 213 48 213 C48 213.66 48 214.32 48 215 C47.34 215 46.68 215 46 215 C45.731875 215.58265625 45.46375 216.1653125 45.1875 216.765625 C43.98519009 219.02786601 42.66174087 220.80576318 41 222.75 C40.484375 223.36359375 39.96875 223.9771875 39.4375 224.609375 C38 226 38 226 36 226 C35.71125 226.598125 35.4225 227.19625 35.125 227.8125 C34 230 34 230 32 233 C31.34 233 30.68 233 30 233 C29.77054687 233.52335938 29.54109375 234.04671875 29.3046875 234.5859375 C27.55126059 237.83030226 25.33796762 240.68700142 23.125 243.625 C8.34070925 263.58551792 -3.34421335 283.68726955 -12 307 C-12.27440918 307.72203613 -12.54881836 308.44407227 -12.83154297 309.18798828 C-16.51546363 318.97304655 -19.03101747 328.91197325 -21.25 339.125 C-21.49637207 340.25615234 -21.74274414 341.38730469 -21.99658203 342.55273438 C-24.85200894 356.26351956 -26.34544696 369.6609111 -26.26074219 383.64697266 C-26.24993037 385.76363258 -26.26077178 387.87945761 -26.2734375 389.99609375 C-26.2805453 398.16010944 -25.67338261 405.98377306 -24 414 C-23.21020752 413.81679199 -22.42041504 413.63358398 -21.60668945 413.44482422 C-15.94375315 412.13416457 -10.27894928 410.83461259 -4.60546875 409.5703125 C17.77840253 404.63953708 17.77840253 404.63953708 39.09375 396.375 C41.33079759 395.31661189 43.56222725 394.32860521 45.84375 393.375 C54.10053138 389.91427885 61.63858707 386.16121409 69 381 C69.57556641 380.59813477 70.15113281 380.19626953 70.74414062 379.78222656 C78.41460912 374.43752001 78.41460912 374.43752001 85.7890625 368.69921875 C88 367 88 367 90 367 C90 366.34 90 365.68 90 365 C91.71332754 363.41466298 93.49689047 361.90458785 95.3125 360.4375 C96.29863281 359.63183594 97.28476562 358.82617188 98.30078125 357.99609375 C101 356 101 356 104 355 C104 354.34 104 353.68 104 353 C104.66 353 105.32 353 106 353 C106 352.34 106 351.68 106 351 C111.23809524 346 111.23809524 346 116 346 C115.48983042 351.2474585 112.78668685 355.1293367 110.0625 359.5 C109.57394531 360.29229004 109.08539063 361.08458008 108.58203125 361.90087891 C104.15217131 368.97238535 99.22851448 375.50337566 94 382 C93.4534375 382.77601563 92.906875 383.55203125 92.34375 384.3515625 C91.9003125 384.89554687 91.456875 385.43953125 91 386 C90.34 386 89.68 386 89 386 C88.79246094 386.52207031 88.58492188 387.04414063 88.37109375 387.58203125 C86.40195465 391.05467257 83.77376784 393.77635272 81.0625 396.6875 C80.52431641 397.28111328 79.98613281 397.87472656 79.43164062 398.48632812 C75.37246308 402.87584564 75.37246308 402.87584564 72 404 C72 404.66 72 405.32 72 406 C70.390625 407.62109375 70.390625 407.62109375 68.25 409.4375 C67.55390625 410.03433594 66.8578125 410.63117188 66.140625 411.24609375 C60.33853007 416 60.33853007 416 58 416 C58 416.66 58 417.32 58 418 C56.3203125 419.5078125 56.3203125 419.5078125 54.125 421.125 C53.40570313 421.66382813 52.68640625 422.20265625 51.9453125 422.7578125 C50 424 50 424 48 424 C48 424.66 48 425.32 48 426 C46.58569336 427.10986328 46.58569336 427.10986328 44.58984375 428.3203125 C43.85475586 428.76930908 43.11966797 429.21830566 42.36230469 429.6809082 C41.16202637 430.39573364 41.16202637 430.39573364 39.9375 431.125 C39.12055664 431.61637451 38.30361328 432.10774902 37.46191406 432.61401367 C2.76969273 453.31406528 -34.4463971 465.86505727 -75.05249023 465.41162109 C-78.45912377 465.37476606 -81.86467049 465.37060612 -85.27148438 465.37109375 C-108.45530705 465.29712219 -129.0500036 461.17933 -151 454 C-151.85384277 453.72220703 -152.70768555 453.44441406 -153.58740234 453.15820312 C-156.35172432 452.25665441 -159.11377059 451.34847388 -161.875 450.4375 C-163.158302 450.01633911 -163.158302 450.01633911 -164.4675293 449.58666992 C-168.68043258 448.18399842 -172.81849366 446.69234491 -176.92578125 445.00390625 C-182.29359579 442.82545771 -187.75231675 441.1158267 -193.3125 439.5 C-194.86650513 439.04826416 -194.86650513 439.04826416 -196.4519043 438.58740234 C-236.91255756 427.12586262 -280.00817501 426.80640153 -317.74609375 446.984375 C-320 448 -320 448 -322.5859375 448.44921875 C-325.39899737 449.09103338 -326.3053156 449.92801207 -328.1875 452.0625 C-329.66796875 453.72265625 -329.66796875 453.72265625 -331 455 C-331.66 455 -332.32 455 -333 455 C-333 455.66 -333 456.32 -333 457 C-335.1171875 458.9453125 -335.1171875 458.9453125 -337.875 461.125 C-338.77992188 461.84945313 -339.68484375 462.57390625 -340.6171875 463.3203125 C-343 465 -343 465 -345 465 C-345 465.66 -345 466.32 -345 467 C-346.32 466.67 -347.64 466.34 -349 466 C-347.67026303 460.68790644 -345.76095713 456.22435895 -343.125 451.4375 C-342.78597656 450.80392578 -342.44695312 450.17035156 -342.09765625 449.51757812 C-339.93526643 445.52579008 -337.69433789 441.65821191 -335 438 C-334.34 438 -333.68 438 -333 438 C-332.62875 436.9171875 -332.62875 436.9171875 -332.25 435.8125 C-330.87730408 432.72393418 -329.27646704 430.48988582 -327 428 C-326.34 428 -325.68 428 -325 428 C-325 427.34 -325 426.68 -325 426 C-324.34 426 -323.68 426 -323 426 C-323 425.34 -323 424.68 -323 424 C-322.34 424 -321.68 424 -321 424 C-321 423.34 -321 422.68 -321 422 C-320.34 422 -319.68 422 -319 422 C-319 421.34 -319 420.68 -319 420 C-318.34 420 -317.68 420 -317 420 C-317 419.34 -317 418.68 -317 418 C-301.26596314 402.95030493 -279.58264187 394.7285817 -259 389 C-257.80246094 388.66097656 -256.60492188 388.32195312 -255.37109375 387.97265625 C-252.9189399 387.29306827 -250.46489505 386.63145626 -248 386 C-248.76403415 383.7682955 -249.53593391 381.53984286 -250.3125 379.3125 C-250.74175781 378.07113281 -251.17101562 376.82976562 -251.61328125 375.55078125 C-252.83548884 372.42124125 -254.23453414 369.83840091 -256 367 C-256.433125 365.783125 -256.86625 364.56625 -257.3125 363.3125 C-259.18361043 358.12574311 -262.105973 353.66778549 -265 349 C-266.3001021 346.83838446 -267.59174635 344.67166003 -268.875 342.5 C-269.76832031 340.99953125 -269.76832031 340.99953125 -270.6796875 339.46875 C-272 337 -272 337 -272 335 C-272.66 335 -273.32 335 -274 335 C-275.69140625 332.69921875 -275.69140625 332.69921875 -277.5625 329.6875 C-278.18253906 328.70136719 -278.80257812 327.71523438 -279.44140625 326.69921875 C-281 324 -281 324 -282 321 C-282.66 321 -283.32 321 -284 321 C-285.4453125 319.34765625 -285.4453125 319.34765625 -287.125 317.0625 C-293.09039218 308.45117197 -293.09039218 308.45117197 -301 302 C-301 301.34 -301 300.68 -301 300 C-301.66 300 -302.32 300 -303 300 C-305.125 298.125 -305.125 298.125 -307 296 C-307 295.34 -307 294.68 -307 294 C-307.66 294 -308.32 294 -309 294 C-309 293.34 -309 292.68 -309 292 C-309.56203125 291.75894531 -310.1240625 291.51789063 -310.703125 291.26953125 C-313.467604 289.74154541 -315.45787654 287.85917749 -317.75 285.6875 C-320.90190899 282.77876499 -323.93710811 280.25423646 -327.625 278.0625 C-328.73875 277.381875 -329.8525 276.70125 -331 276 C-331 275.34 -331 274.68 -331 274 C-331.61875 273.855625 -332.2375 273.71125 -332.875 273.5625 C-335 273 -335 273 -337 272 C-337 271.34 -337 270.68 -337 270 C-337.52207031 269.90589844 -338.04414063 269.81179688 -338.58203125 269.71484375 C-341.83978075 268.75172879 -344.69769837 267.14257872 -347.6875 265.5625 C-357.92953699 260.28016544 -368.6620894 256.19092518 -379.39135742 252.01806641 C-381.93332728 251.02602014 -384.46790548 250.01695364 -387 249 C-386.505 247.02 -386.505 247.02 -386 245 C-374.44534979 244.42119563 -363.36793483 246.11878147 -352 248 C-351.30583984 248.11214844 -350.61167969 248.22429687 -349.89648438 248.33984375 C-335.07548412 250.79234839 -320.44314803 255.27842598 -307 262 C-305.9171875 262.50015625 -304.834375 263.0003125 -303.71875 263.515625 C-295.3871586 267.46022801 -288.07272652 272.17374836 -280.71679688 277.71386719 C-278.97543648 279.01840168 -277.21709101 280.29655362 -275.453125 281.5703125 C-269.20089743 286.12964028 -269.20089743 286.12964028 -267 288 C-267 288.66 -267 289.32 -267 290 C-266.20335937 290.309375 -266.20335937 290.309375 -265.390625 290.625 C-261.99226564 292.57961192 -259.48944072 295.22123717 -256.75 298 C-256.19570313 298.5465625 -255.64140625 299.093125 -255.0703125 299.65625 C-251 303.7466133 -251 303.7466133 -251 306 C-250.34 306 -249.68 306 -249 306 C-249 306.66 -249 307.32 -249 308 C-248.34 308 -247.68 308 -247 308 C-245.61474609 309.5378418 -245.61474609 309.5378418 -244.0234375 311.69921875 C-243.14667358 312.88511597 -243.14667358 312.88511597 -242.25219727 314.0949707 C-241.32298462 315.37827271 -241.32298462 315.37827271 -240.375 316.6875 C-239.74198975 317.55656982 -239.10897949 318.42563965 -238.45678711 319.32104492 C-230.48478147 330.36258418 -223.92708692 341.75740055 -218 354 C-217.02379265 355.9598102 -216.04497699 357.91832533 -215.0625 359.875 C-214.375 361.25 -213.6875 362.625 -213 364 C-214.58150668 351.68224877 -216.80449139 339.92775656 -220.39453125 328.03710938 C-221.29771629 324.99832874 -222.10691995 321.93430318 -222.9375 318.875 C-228.33059142 300.18181461 -235.97562981 280.75846602 -246.66796875 264.45703125 C-248 262 -248 262 -248 258 C-242.75092315 258.43483477 -240.18350305 260.06633435 -236.25 263.5 C-232.84110973 266.57272965 -232.84110973 266.57272965 -229 269 C-229 269.66 -229 270.32 -229 271 C-228.44441406 271.2371875 -227.88882813 271.474375 -227.31640625 271.71875 C-224.45628879 273.3007374 -222.33051331 275.27662715 -219.9375 277.5 C-217.34079665 279.90536731 -214.94893694 282.03404204 -212 284 C-212 284.66 -212 285.32 -212 286 C-211.34 286 -210.68 286 -210 286 C-210 286.66 -210 287.32 -210 288 C-209.34 288 -208.68 288 -208 288 C-206.18605959 290.08768597 -204.48938011 292.18100914 -202.8125 294.375 C-202.32289795 295.00680176 -201.8332959 295.63860352 -201.32885742 296.28955078 C-197.38622469 301.4111493 -193.61676384 306.64274571 -190 312 C-193.91927206 292.86473053 -198.08719056 273.76923182 -203.17773438 254.90795898 C-204.48750312 250.0334642 -205.68473056 245.14349012 -206.8215332 240.22583008 C-210.50495179 224.29938802 -215.29840896 208.80187683 -220.55224609 193.328125 C-221.94462269 189.22187687 -223.2803958 185.11196773 -224.5078125 180.953125 C-225.91583781 176.2017905 -227.51982715 171.54051333 -229.1875 166.875 C-232.33216824 158.00181152 -235.32511826 149.08330481 -238.24682617 140.13427734 C-239.58871764 136.05961379 -240.92608334 132.0291857 -242.6484375 128.09765625 C-243.79383803 125.47250417 -244.64259263 123.00841736 -245.375 120.25 C-246.42582603 116.62383349 -247.70692998 113.29132471 -249.3125 109.875 C-251.52620464 105.14972221 -253.50323495 100.36844941 -255.375 95.5 C-255.64997314 94.80503418 -255.92494629 94.11006836 -256.20825195 93.39404297 C-258.11738381 88.35215144 -258.11738381 88.35215144 -257 85 C-253.70138396 86.3998197 -251.96318809 87.94892415 -249.79296875 90.78125 C-248.91874268 91.91252319 -248.91874268 91.91252319 -248.02685547 93.06665039 C-247.11637451 94.27115845 -247.11637451 94.27115845 -246.1875 95.5 C-245.55730957 96.32298584 -244.92711914 97.14597168 -244.27783203 97.99389648 C-240.68919934 102.7022905 -237.16464004 107.44340462 -233.82421875 112.33203125 C-231.31715626 115.99867724 -228.75099823 119.62267198 -226.1875 123.25 C-225.66857178 123.98541016 -225.14964355 124.72082031 -224.61499023 125.47851562 C-221.80913769 129.45205365 -218.99051236 133.41586857 -216.15380859 137.36743164 C-175.79677152 193.60968543 -175.79677152 193.60968543 -169 214 C-168.34 214.33 -167.68 214.66 -167 215 C-166.7525 213.80375 -166.505 212.6075 -166.25 211.375 C-165.35060568 207.29902148 -164.24064948 203.31640263 -163.0625 199.3125 C-161.70539619 194.64745564 -160.53326418 190.01005388 -159.5625 185.25 C-157.94593084 177.39683072 -155.76891435 169.73230061 -153.57128906 162.02685547 C-152.59100088 158.54892705 -151.68024993 155.0523926 -150.7734375 151.5546875 C-149.90509338 148.68652057 -148.8517968 145.91890676 -147.78515625 143.11962891 C-146.78102591 140.40885166 -145.89531755 137.66749328 -145.01098633 134.91577148 C-137.39216788 111.2923746 -127.6978 87.69878772 -115.65625 65.98828125 C-114.59094125 64.06620296 -113.562648 62.12288634 -112.58203125 60.15625 C-107.37580013 49.76949753 -101.72950231 39.47838383 -95 30 C-94.08248142 28.66855542 -93.16591598 27.33645379 -92.25 26.00390625 C-79.90945338 8.15233286 -79.90945338 8.15233286 -75 4 C-74.01 4 -73.02 4 -72 4 C-72.55965537 9.04333113 -73.69892142 13.28773589 -75.5625 18 C-76.10892215 19.41844396 -76.65305976 20.8377694 -77.1953125 22.2578125 C-77.48696289 23.0199707 -77.77861328 23.78212891 -78.07910156 24.56738281 C-84.46675046 41.44080105 -89.60810038 58.50599409 -94 76 C-94.26022949 77.01835938 -94.52045898 78.03671875 -94.78857422 79.0859375 C-101.6459261 106.1500834 -106.40046813 134.11181647 -108 162 C-108.08241943 163.27230469 -108.08241943 163.27230469 -108.16650391 164.5703125 C-109.77231371 189.65694595 -109.35837802 214.91335921 -108 240 C-107.81824219 238.99582031 -107.63648438 237.99164063 -107.44921875 236.95703125 C-105.85591062 228.24480094 -104.09698892 219.60730598 -102 211 C-101.70053467 209.75549072 -101.70053467 209.75549072 -101.39501953 208.48583984 C-93.22931227 174.64292672 -82.58401305 142.06615762 -69 110 C-68.43684082 108.6687207 -68.43684082 108.6687207 -67.86230469 107.31054688 C-63.98516523 98.21018814 -59.75425641 89.40765243 -55.0078125 80.73046875 C-52.85132325 76.77058111 -50.86321832 72.73377371 -48.875 68.6875 C-46.20323305 63.26375439 -43.36146603 58.0354544 -40.12890625 52.91796875 C-38.84995198 50.89768109 -38.84995198 50.89768109 -38 48 C-37.34 48 -36.68 48 -36 48 C-35.89300781 47.42765625 -35.78601563 46.8553125 -35.67578125 46.265625 C-34.28931681 41.61736273 -30.84291904 37.86345408 -28 34 C-27.55124512 33.38979004 -27.10249023 32.77958008 -26.64013672 32.15087891 C-9.49019831 8.89526347 -9.49019831 8.89526347 -3 3 C-2.34 3 -1.68 3 -1 3 C-0.67 2.01 -0.34 1.02 0 0 Z M-118 98 C-118.33 99.32 -118.66 100.64 -119 102 C-117.68 102 -116.36 102 -115 102 C-114.67 101.01 -114.34 100.02 -114 99 C-115.32 98.67 -116.64 98.34 -118 98 Z M-110 100 C-109 102 -109 102 -109 102 Z M-120 102 C-120.99 104.97 -121.98 107.94 -123 111 C-119.71185401 108.27393696 -119.71185401 108.27393696 -118.75 104.25 C-118.8325 103.5075 -118.915 102.765 -119 102 C-119.33 102 -119.66 102 -120 102 Z M-48 102 C-47 104 -47 104 -47 104 Z M-111 103 C-110 105 -110 105 -110 105 Z M-49 105 C-52.60821801 113.10962232 -55.35860587 121.15802557 -57.5625 129.75 C-57.8620459 130.89178711 -58.1615918 132.03357422 -58.47021484 133.20996094 C-59.32267184 136.47101324 -60.16313764 139.73491683 -61 143 C-61.38667497 144.4895947 -61.77338696 145.97917979 -62.16015625 147.46875 C-63.13907018 151.30514145 -64.07931084 155.14935826 -65 159 C-65.19835449 159.81855469 -65.39670898 160.63710937 -65.60107422 161.48046875 C-68.38741577 173.03925126 -70.71356897 184.54217076 -72.32421875 196.32421875 C-72.77770305 199.61528874 -73.3372905 202.86906581 -73.95703125 206.1328125 C-75.37491894 213.77072329 -76.2847743 221.47756824 -77.25 229.18334961 C-79.13248731 244.14213793 -79.13248731 244.14213793 -81 250 C-81.66 250.33 -82.32 250.66 -83 251 C-80.42859268 218.5403379 -75.26227318 186.64931777 -67.54296875 155.0078125 C-67.18730835 153.54299438 -67.18730835 153.54299438 -66.82446289 152.04858398 C-66.36929744 150.18677458 -65.90663084 148.32677768 -65.43530273 146.46899414 C-65.23235596 145.64778076 -65.02940918 144.82656738 -64.8203125 143.98046875 C-64.63742676 143.25754639 -64.45454102 142.53462402 -64.26611328 141.78979492 C-63.81032144 139.90111418 -63.81032144 139.90111418 -65 138 C-83.65604372 185.64279569 -95.219939 239.68735042 -95.1328125 290.90234375 C-95.13376923 292.18194473 -95.13472595 293.46154572 -95.13571167 294.77992249 C-95.13717156 297.47153961 -95.13509314 300.16312317 -95.13037109 302.85473633 C-95.1247258 306.2294094 -95.1280321 309.60400275 -95.13380241 312.97867298 C-95.16448465 334.01865058 -94.90866484 355.00415524 -92.625 375.9375 C-92.43200317 377.76317505 -92.43200317 377.76317505 -92.23510742 379.62573242 C-91.256605 388.51878442 -89.93972939 397.26433929 -88 406 C-87.01 406.33 -86.02 406.66 -85 407 C-83.75340976 400.13456428 -83.77522178 393.27850775 -83.68359375 386.31640625 C-83.66295564 384.97468019 -83.64195777 383.63295963 -83.62062073 382.29124451 C-83.57682674 379.48138619 -83.53590172 376.67150684 -83.49731445 373.86157227 C-83.44849847 370.30799061 -83.39485302 366.75450486 -83.33934021 363.20102215 C-83.14461299 350.71029407 -82.96868862 338.22231529 -83.00708008 325.72973633 C-82.99346015 318.55485397 -82.84447618 311.38259103 -82.68261719 304.2097168 C-82.6442463 302.44676946 -82.60940795 300.68374165 -82.578125 298.9206543 C-82.36882691 287.16180787 -81.61615017 275.65204392 -80 264 C-79.01 263.67 -78.02 263.34 -77 263 C-77.03029297 263.56581787 -77.06058594 264.13163574 -77.09179688 264.71459961 C-77.23452539 267.45526155 -77.36716062 270.1963415 -77.5 272.9375 C-77.54769531 273.82501953 -77.59539062 274.71253906 -77.64453125 275.62695312 C-78.78184573 299.75426747 -77.78924912 323.9840657 -77.20043945 348.11547852 C-77.08390163 352.89455599 -76.97336454 357.67375152 -76.86443424 362.4530077 C-76.77861245 366.18595068 -76.68941191 369.91880733 -76.59924126 373.65164757 C-76.55710432 375.4140436 -76.51603355 377.17646551 -76.4761219 378.93891335 C-77.1471327 394.43101409 -77.1471327 394.43101409 -74 409 C-73.01 409 -72.02 409 -71 409 C-70.99761165 408.32712322 -70.99522329 407.65424644 -70.99276257 406.96097946 C-70.93298408 390.39971442 -70.85705231 373.83860412 -70.76428509 357.27749252 C-70.71978759 349.26785346 -70.68035372 341.25825457 -70.65356445 333.24853516 C-70.41976319 264.99318055 -70.41976319 264.99318055 -67 236 C-66.8436205 234.60958872 -66.68823484 233.21906538 -66.53372192 231.82844543 C-63.43827373 204.05969156 -59.4984542 176.18992957 -52.53173828 149.10449219 C-50.43661611 140.8125027 -48.73510057 132.52716664 -48 124 C-50.56497775 126.56497775 -50.69363133 128.40307317 -51.4375 131.9375 C-52.30908172 136.0364243 -53.29174575 140.06198649 -54.44140625 144.08984375 C-56.21893299 150.53193495 -57.37238174 157.0427933 -58.5 163.625 C-58.71503174 164.85468506 -58.93006348 166.08437012 -59.15161133 167.35131836 C-59.57797013 169.79129651 -60.00227044 172.23163543 -60.42431641 174.67236328 C-61.04826004 178.27895858 -61.68233063 181.88365994 -62.3203125 185.48779297 C-62.65673713 187.3886816 -62.99060666 189.29002199 -63.32421875 191.19140625 C-63.69521338 193.28227191 -64.07167684 195.37229054 -64.47314453 197.45751953 C-65.81695897 204.52814886 -66.72175558 211.59693254 -67.5 218.75 C-67.75548875 221.03396868 -68.01199494 223.31782379 -68.26953125 225.6015625 C-68.39279785 226.69500977 -68.51606445 227.78845703 -68.64306641 228.91503906 C-69.34190954 234.95510875 -70.15543148 240.97872326 -71 247 C-71.33 247 -71.66 247 -72 247 C-72.93595759 240.4217449 -72.91864035 234.52771065 -72.1875 227.9375 C-72.10435547 227.11056641 -72.02121094 226.28363281 -71.93554688 225.43164062 C-70.49352631 211.46403996 -68.5718619 197.59528738 -66.25 183.75 C-66.05541702 182.58762314 -66.05541702 182.58762314 -65.85690308 181.40176392 C-62.29280509 160.22628778 -58.1187084 139.3920927 -51.515625 118.92578125 C-50.04846889 114.32959775 -48.97634605 109.72379191 -48 105 C-48.33 105 -48.66 105 -49 105 Z M-43 105 C-42 107 -42 107 -42 107 Z M-44 107 C-43 110 -43 110 -43 110 Z M-112 109 C-111 111 -111 111 -111 111 Z M-113 111 C-112 115 -112 115 -112 115 Z M-119 113 C-119.66 114.98 -120.32 116.96 -121 119 C-120.01 118.01 -119.02 117.02 -118 116 C-118.33 115.01 -118.66 114.02 -119 113 Z M-46 114 C-45 116 -45 116 -45 116 Z M-129 116 C-128 118 -128 118 -128 118 Z M-114 118 C-113 121 -113 121 -113 121 Z M-47 118 C-47.33 119.98 -47.66 121.96 -48 124 C-47.34 123.34 -46.68 122.68 -46 122 C-46.3185177 119.89179203 -46.3185177 119.89179203 -47 118 Z M-130 119 C-129 122 -129 122 -129 122 Z M-123 119 C-122.67 119.66 -122.34 120.32 -122 121 C-121.67 120.34 -121.34 119.68 -121 119 C-121.66 119 -122.32 119 -123 119 Z M-124 121 C-126.70563238 123.70563238 -127.13951149 126.27143191 -128.1875 129.9375 C-128.55230469 131.18402344 -128.91710937 132.43054688 -129.29296875 133.71484375 C-130.28799923 136.98392577 -130.28799923 136.98392577 -129 140 C-126.36 135.71 -123.72 131.42 -121 127 C-121.66 126.67 -122.32 126.34 -123 126 C-123 124.35 -123 122.7 -123 121 C-123.33 121 -123.66 121 -124 121 Z M-131 122 C-130 125 -130 125 -130 125 Z M-115 123 C-114 125 -114 125 -114 125 Z M-116 128 C-115 132 -115 132 -115 132 Z M-62 128 C-61 130 -61 130 -61 130 Z M-117 132 C-117 134.97 -117 137.94 -117 141 C-116.67 141 -116.34 141 -116 141 C-116 138.03 -116 135.06 -116 132 C-116.33 132 -116.66 132 -117 132 Z M-63 132 C-62 134 -62 134 -62 134 Z M-64 134 C-63 137 -63 137 -63 137 Z M-132 125 C-153.44053163 185.70350518 -163.45870353 250.68819075 -163.26074219 314.95825195 C-163.24935914 318.68660588 -163.25612041 322.41467364 -163.26763344 326.14301777 C-165.94871788 363.68349825 -165.94871788 363.68349825 -157.1953125 397.30078125 C-154.8466125 399.1187252 -153.6684069 399.55543954 -150.75 399.75 C-149.5125 399.8325 -148.275 399.915 -147 400 C-146.67 397.36 -146.34 394.72 -146 392 C-145.01 392.33 -144.02 392.66 -143 393 C-142.05969341 395.01991785 -141.48345085 397.05516382 -140.84375 399.1875 C-140.5653125 399.785625 -140.286875 400.38375 -140 401 C-139.01 401.33 -138.02 401.66 -137 402 C-136.67 400.02 -136.34 398.04 -136 396 C-135.01 395.67 -134.02 395.34 -133 395 C-132.896875 396.11375 -132.79375 397.2275 -132.6875 398.375 C-132.460625 399.57125 -132.23375 400.7675 -132 402 C-129.18490007 404.2773501 -129.18490007 404.2773501 -126 404 C-125.77529647 393.1642962 -125.9981616 382.43414472 -126.8125 371.625 C-126.89854492 370.44204346 -126.98458984 369.25908691 -127.07324219 368.0402832 C-127.47666089 362.59447974 -127.88873081 357.15123463 -128.38916016 351.71337891 C-130.9620549 323.63856821 -131.35570753 295.58938946 -131.42754364 267.41640091 C-131.43729538 264.49872099 -131.45445036 261.58117497 -131.47369385 258.6635437 C-131.60199236 237.30887154 -131.07508786 216.15512055 -129.14453125 194.87890625 C-129.0614163 193.96226133 -128.97830135 193.04561642 -128.89266777 192.10119438 C-127.365687 175.63242664 -125.09576802 159.28966666 -122.39550781 142.97460938 C-122.03587341 140.2698035 -121.92287124 137.72353039 -122 135 C-123.98805406 137.88796158 -123.98805406 137.88796158 -125.4375 140.625 C-127 143 -127 143 -130 144 C-130.495 142.515 -130.495 142.515 -131 141 C-131.69821417 143.10063576 -132.38324472 145.20565737 -133.0625 147.3125 C-133.63677734 149.07013672 -133.63677734 149.07013672 -134.22265625 150.86328125 C-135.29709844 154.0006097 -135.29709844 154.0006097 -134 157 C-132.02 154.03 -130.04 151.06 -128 148 C-127 151 -127 151 -127.77734375 152.9375 C-128.35162109 153.9584375 -128.35162109 153.9584375 -128.9375 155 C-130.46769739 157.73879397 -131 158.77775564 -131 162 C-130.01 161.67 -129.02 161.34 -128 161 C-131.73946496 169.79874109 -136.13117042 177.56558521 -145 182 C-143.00118296 173.14705429 -140.85132486 164.34473107 -138.5625 155.5625 C-138.25828125 154.386875 -137.9540625 153.21125 -137.640625 152 C-135.75424481 144.75148378 -133.76968473 137.55479962 -131.53125 130.40625 C-130.75650084 127.87497118 -130.75650084 127.87497118 -132 125 Z M-118 141 C-118.89021252 146.51338285 -119.76517828 152.02880832 -120.61962891 157.54785156 C-120.93355248 159.57163099 -121.25312779 161.59453287 -121.57421875 163.6171875 C-124.98613903 186.81824538 -125.34658199 210.27651361 -125.25774765 233.68013382 C-125.24985707 235.91549024 -125.24536841 238.15083301 -125.24160767 240.38619995 C-125.16481183 279.7868022 -124.09916157 319.12309998 -120.32763672 358.359375 C-119.88908341 363.23248002 -119.5683935 368.11089032 -119.26586914 372.99414062 C-119.02343596 375.73503805 -118.56700571 378.31170911 -118 381 C-117.82866525 383.22735174 -117.68489445 385.45692362 -117.5625 387.6875 C-117.08746798 396.48843189 -117.08746798 396.48843189 -115 405 C-112.04622502 407.36980013 -112.04622502 407.36980013 -108 407 C-108.08532782 403.24934744 -108.19748724 399.49985 -108.3125 395.75 C-108.33505859 394.74453125 -108.35761719 393.7390625 -108.38085938 392.703125 C-108.65220165 384.41485201 -109.46896895 376.23895744 -110.3828125 368 C-112.07185625 352.77178792 -113.37253221 337.52454377 -114.5625 322.25 C-114.61600491 321.56384109 -114.66950981 320.87768219 -114.72463608 320.17073059 C-115.41661215 311.278633 -116.08857752 302.38518362 -116.74291992 293.49023438 C-116.90098424 291.34428232 -117.06035712 289.19842558 -117.22192383 287.05273438 C-119.04670936 262.80626223 -119.19710529 238.55944139 -119.24453354 214.2558136 C-119.24990147 211.79516622 -119.25801882 209.3345397 -119.26651001 206.87390137 C-119.32305912 187.71351843 -118.90885201 168.76433069 -117.17962646 149.66827393 C-116.98463168 146.77171021 -116.97077981 143.90224999 -117 141 C-117.33 141 -117.66 141 -118 141 Z M-133 162 C-134.03319813 163.2608012 -135.05124379 164.53403258 -136.0625 165.8125 C-136.63097656 166.52019531 -137.19945312 167.22789062 -137.78515625 167.95703125 C-138.18605469 168.63121094 -138.58695313 169.30539063 -139 170 C-138.67 170.99 -138.34 171.98 -138 173 C-136.02 170.03 -134.04 167.06 -132 164 C-132.33 163.34 -132.66 162.68 -133 162 Z M-78 162 C-77 164 -77 164 -77 164 Z M-82 175 C-81 178 -81 178 -81 178 Z M-84 183 C-83 185 -83 185 -83 185 Z M-85 187 C-84 189 -84 189 -84 189 Z M-86 191 C-85 193 -85 193 -85 193 Z M-87 195 C-86 197 -86 197 -86 197 Z M-88 198 C-87 202 -87 202 -87 202 Z M-90 208 C-89 210 -89 210 -89 210 Z M-91 212 C-90 214 -90 214 -90 214 Z M-92 217 C-91 219 -91 219 -91 219 Z M-94 227 C-93 230 -93 230 -93 230 Z M-98 253 C-97 255 -97 255 -97 255 Z M-18 286 C-17.34 286.66 -16.68 287.32 -16 288 C-16 287.34 -16 286.68 -16 286 C-16.66 286 -17.32 286 -18 286 Z M-19 290 C-18 292 -18 292 -18 292 Z M-37 292 C-38.01111093 295.04913228 -38.01111093 295.04913228 -37 298 C-35.35 297.34 -33.7 296.68 -32 296 C-32.9590625 295.8453125 -32.9590625 295.8453125 -33.9375 295.6875 C-34.618125 295.460625 -35.29875 295.23375 -36 295 C-36.33 294.01 -36.66 293.02 -37 292 Z M-23 296 C-23.433125 297.3303125 -23.433125 297.3303125 -23.875 298.6875 C-24.24625 299.780625 -24.6175 300.87375 -25 302 C-25.2475 302.845625 -25.495 303.69125 -25.75 304.5625 C-27.52063215 308.0152327 -29.9225929 309.6584946 -33 312 C-32.34 312.33 -31.68 312.66 -31 313 C-33.6516491 317.88461676 -36.57961219 322.19320406 -42 324 C-41.525625 323.21625 -41.05125 322.4325 -40.5625 321.625 C-39.66101977 320.11051322 -38.78820515 318.5764103 -38 317 C-39.32 317 -40.64 317 -42 317 C-40.26440562 313.942048 -38.61527381 311.36620011 -36 309 C-36.99 308.67 -37.98 308.34 -39 308 C-38.34 306.35 -37.68 304.7 -37 303 C-37.99 302.67 -38.98 302.34 -40 302 C-43.17278499 304.11519 -43.48959966 304.56119458 -44.68359375 307.9375 C-44.96952393 308.74082764 -45.2554541 309.54415527 -45.55004883 310.37182617 C-45.84290771 311.23912354 -46.1357666 312.1064209 -46.4375 313 C-46.74389404 313.89630127 -47.05028809 314.79260254 -47.3659668 315.71606445 C-53.69456803 334.72195363 -56.52413056 353.99568344 -56 374 C-55.67 374 -55.34 374 -55 374 C-54.86722656 372.97519531 -54.73445313 371.95039063 -54.59765625 370.89453125 C-54.41935912 369.5338426 -54.24096877 368.17316615 -54.0625 366.8125 C-53.97548828 366.13896484 -53.88847656 365.46542969 -53.79882812 364.77148438 C-53.32174523 361.14918834 -52.76987965 357.57196415 -52 354 C-51.01 354 -50.02 354 -49 354 C-49.23771118 355.05997192 -49.23771118 355.05997192 -49.48022461 356.14135742 C-50.00759166 359.04175234 -50.2061855 361.7938127 -50.31640625 364.73828125 C-50.35830078 365.80498047 -50.40019531 366.87167969 -50.44335938 367.97070312 C-50.50233398 369.62489258 -50.50233398 369.62489258 -50.5625 371.3125 C-50.62727539 372.99569336 -50.62727539 372.99569336 -50.69335938 374.71289062 C-50.79914787 377.47514569 -50.90123672 380.2374863 -51 383 C-49.02 382.505 -49.02 382.505 -47 382 C-47 385.3 -47 388.6 -47 392 C-46.67 392 -46.34 392 -46 392 C-45.96132813 390.95392578 -45.96132813 390.95392578 -45.921875 389.88671875 C-45.45887398 381.26858613 -44.36051377 372.78791012 -43.125 364.25 C-42.96354492 363.10233154 -42.80208984 361.95466309 -42.63574219 360.7722168 C-41.62346203 353.96586127 -40.20297393 347.52198664 -38 341 C-37.34 341 -36.68 341 -36 341 C-36.165 342.258125 -36.33 343.51625 -36.5 344.8125 C-37.11073012 350.2144509 -37.09133564 355.57060338 -37 361 C-36.67 361 -36.34 361 -36 361 C-35.91363281 360.2678125 -35.82726562 359.535625 -35.73828125 358.78125 C-33.16174141 338.92534665 -28.48376355 320.01805934 -21.76855469 301.1628418 C-21.15945314 299.44872788 -20.5752557 297.72576711 -20 296 C-20.99 296 -21.98 296 -23 296 Z M-209 326 C-208 328 -208 328 -208 328 Z M-263 328 C-262 331 -262 331 -262 331 Z M-208 329 C-207 333 -207 333 -207 333 Z M-207 334 C-206 336 -206 336 -206 336 Z M-206 336 C-206 337.98 -206 339.96 -206 342 C-205.67 342 -205.34 342 -205 342 C-205 340.02 -205 338.04 -205 336 C-205.33 336 -205.66 336 -206 336 Z M-200 337 C-199 341 -199 341 -199 341 Z M-256 341 C-255.34 342.32 -254.68 343.64 -254 345 C-253.34 344.01 -252.68 343.02 -252 342 C-253.32 341.67 -254.64 341.34 -256 341 Z M-241 341 C-240.34 341.66 -239.68 342.32 -239 343 C-239 342.34 -239 341.68 -239 341 C-239.66 341 -240.32 341 -241 341 Z M-199 341 C-198.50803544 348.20982551 -197.2375534 355.1504731 -195.7578125 362.21875 C-194.85423868 366.72730389 -194.16476113 371.25170621 -193.52734375 375.8046875 C-193.35332031 376.52914062 -193.17929688 377.25359375 -193 378 C-192.34 378.33 -191.68 378.66 -191 379 C-191.6446246 366.01859419 -193.41846583 353.21742445 -198 341 C-198.33 341 -198.66 341 -199 341 Z M-205 342 C-204.29776886 349.08883852 -203.18931498 356.05145146 -201.9375 363.0625 C-201.75123047 364.11888672 -201.56496094 365.17527344 -201.37304688 366.26367188 C-200.91788796 368.8429057 -200.46015627 371.4216539 -200 374 C-199.67 374 -199.34 374 -199 374 C-198.74313121 366.91422696 -199.41262294 360.42814098 -200.875 353.5 C-201.04902344 352.60796875 -201.22304687 351.7159375 -201.40234375 350.796875 C-202.22417592 345.91204447 -202.22417592 345.91204447 -205 342 Z M-239 343 C-238.67 343.99 -238.34 344.98 -238 346 C-238 345.01 -238 344.02 -238 343 C-238.33 343 -238.66 343 -239 343 Z M-237 347 C-236 349 -236 349 -236 349 Z M-192 347 C-191 351 -191 351 -191 351 Z M-251 349 C-250.67 350.32 -250.34 351.64 -250 353 C-248.68 352.67 -247.36 352.34 -246 352 C-246.33 350.68 -246.66 349.36 -247 348 C-249.0745356 347.8509288 -249.0745356 347.8509288 -251 349 Z M-235 350 C-234 352 -234 352 -234 352 Z M-234 352 C-233 354 -233 354 -233 354 Z M-191 352 C-190 354 -190 354 -190 354 Z M-233 354 C-232.67 355.32 -232.34 356.64 -232 358 C-231.67 357.34 -231.34 356.68 -231 356 C-231.66 355.34 -232.32 354.68 -233 354 Z M-190 356 C-190 357.65 -190 359.3 -190 361 C-189.67 361 -189.34 361 -189 361 C-189 359.35 -189 357.7 -189 356 C-189.33 356 -189.66 356 -190 356 Z M-231 359 C-230 361 -230 361 -230 361 Z M-241 360 C-240.34048737 363.23828114 -239.16784772 365.80549593 -237.5625 368.6875 C-236.91474609 369.86892578 -236.91474609 369.86892578 -236.25390625 371.07421875 C-235.13921915 373.14102559 -235.13921915 373.14102559 -233 374 C-233.59300425 369.13736516 -234.7200829 365.30651007 -237 361 C-239.06890419 359.95710245 -239.06890419 359.95710245 -241 360 Z M-230 361 C-229 363 -229 363 -229 363 Z M-38 361 C-37 365 -37 365 -37 365 Z M-229 363 C-228.34 364.32 -227.68 365.64 -227 367 C-227.33 365.68 -227.66 364.36 -228 363 C-228.33 363 -228.66 363 -229 363 Z M-212 367 C-211 369 -211 369 -211 369 Z M-227 368 C-226.67 368.99 -226.34 369.98 -226 371 C-226 370.01 -226 369.02 -226 368 C-226.33 368 -226.66 368 -227 368 Z M-39 368 C-39 370.31 -39 372.62 -39 375 C-38.67 375 -38.34 375 -38 375 C-38 372.69 -38 370.38 -38 368 C-38.33 368 -38.66 368 -39 368 Z M-40 383 C-40 384.65 -40 386.3 -40 388 C-39.67 388 -39.34 388 -39 388 C-39 386.35 -39 384.7 -39 383 C-39.33 383 -39.66 383 -40 383 Z M64.1875 395.375 C50.3893457 403.78948138 35.38372403 410.1421775 20 415 C19.02861084 415.31396729 19.02861084 415.31396729 18.03759766 415.63427734 C-10.70265077 424.85555555 -38.86902548 429.18745788 -68.94628906 429.18530273 C-72.36015272 429.18749049 -75.77369317 429.2057038 -79.1875 429.22460938 C-96.50867303 429.26988215 -112.28217027 427.56654812 -129 423 C-130.10746582 422.70681885 -130.10746582 422.70681885 -131.23730469 422.40771484 C-142.2426628 419.48825722 -153.00034219 416.00390327 -163.73742676 412.22897339 C-174.15439009 408.56949337 -184.53223075 405.07397209 -195.25 402.375 C-196.63022339 402.02211914 -196.63022339 402.02211914 -198.03833008 401.66210938 C-208.73264459 399.0990011 -219.48367163 398.82412689 -230.4375 398.875 C-231.53570068 398.87983398 -232.63390137 398.88466797 -233.76538086 398.88964844 C-263.76796422 399.11233517 -288.19630123 407.73430462 -312 426 C-311.67 426.66 -311.34 427.32 -311 428 C-310.39414062 427.68546875 -309.78828125 427.3709375 -309.1640625 427.046875 C-290.85275947 417.69402484 -274.35576457 414.31631723 -253.90161133 414.47851562 C-250.70251056 414.49989966 -247.50567226 414.47864462 -244.30664062 414.453125 C-225.84223667 414.42478062 -209.63799632 417.60838229 -192.3125 423.875 C-190.44670288 424.53471802 -190.44670288 424.53471802 -188.54321289 425.20776367 C-185.02343037 426.45748989 -181.51046787 427.72437859 -178 429 C-177.11989258 429.3182373 -176.23978516 429.63647461 -175.33300781 429.96435547 C-168.84307754 432.32073713 -162.41794487 434.7993619 -156.0625 437.5 C-133.20740791 447.03819176 -109.86097636 452.93655217 -85 453 C-83.61715335 453.02416008 -82.23433642 453.05010932 -80.8515625 453.078125 C-76.89782686 453.12547513 -72.95244963 453.086928 -69 453 C-67.86643066 452.98114746 -67.86643066 452.98114746 -66.70996094 452.96191406 C-42.27754245 452.47584484 -17.22037116 447.36024805 5 437 C6.43731436 436.35765737 7.87483174 435.7157689 9.3125 435.07421875 C25.6870578 427.65763638 40.59381287 418.7067135 54.45996094 407.25927734 C57.55904571 404.72518108 60.74955781 402.30324361 63.9140625 399.8515625 C66.26064905 397.76863736 68.10529498 395.49483783 70 393 C67.36633081 393 66.39977329 393.93203976 64.1875 395.375 Z " fill="#EBF5EC" transform="translate(396,7)"/>
<path d="M0 0 C0.66 0.33 1.32 0.66 2 1 C-0.51876837 8.73955358 -3.30466009 16.37076876 -6.12695312 24.00390625 C-8.544343 30.59346428 -10.74114087 37.07627478 -12 44 C-11.34 44 -10.68 44 -10 44 C-10.72800778 50.32123827 -12.28214529 56.34717044 -13.875 62.5 C-16.19911843 71.6331722 -18.2482857 80.73941281 -20 90 C-20.23203125 91.08667969 -20.4640625 92.17335938 -20.703125 93.29296875 C-23.8744356 108.22174472 -25.95981676 123.39647014 -27.81640625 138.5390625 C-27.94337891 139.56644531 -28.07035156 140.59382812 -28.20117188 141.65234375 C-28.43401511 143.56795135 -28.65861427 145.484588 -28.87304688 147.40234375 C-29.577606 153.23764938 -30.92329443 158.50062248 -33 164 C-33.66 164 -34.32 164 -35 164 C-35.63050195 151.83364757 -33.77831129 140.00266127 -32 128 C-31.85014648 126.9879248 -31.70029297 125.97584961 -31.54589844 124.93310547 C-27.90046679 100.66505677 -23.24942849 76.73553006 -17 53 C-18.88782156 58.8292559 -20.76215328 64.66271399 -22.625 70.5 C-22.90011414 71.36203033 -23.17522827 72.22406067 -23.4586792 73.11221313 C-27.14465291 84.70197574 -30.58017992 96.26787933 -33.29931641 108.12890625 C-33.50218262 109.00804687 -33.70504883 109.8871875 -33.9140625 110.79296875 C-34.1608374 111.91481567 -34.1608374 111.91481567 -34.41259766 113.05932617 C-35 115 -35 115 -37 118 C-36.85691406 116.73542969 -36.85691406 116.73542969 -36.7109375 115.4453125 C-36.60007812 114.34960938 -36.48921875 113.25390625 -36.375 112.125 C-36.25898438 111.03445312 -36.14296875 109.94390625 -36.0234375 108.8203125 C-36.01570313 107.88960938 -36.00796875 106.95890625 -36 106 C-36.66 105.34 -37.32 104.68 -38 104 C-37.625 101.875 -37.625 101.875 -37 100 C-37 100.66 -37 101.32 -37 102 C-36.34 102 -35.68 102 -35 102 C-35.14308594 101.17012573 -35.14308594 101.17012573 -35.2890625 100.32348633 C-36.12899802 94.56296925 -35.72178836 90.21441536 -34 84.6875 C-33.77795898 83.93275391 -33.55591797 83.17800781 -33.32714844 82.40039062 C-26.74069464 60.48138928 -26.74069464 60.48138928 -23 53 C-22.34 53 -21.68 53 -21 53 C-21.19907959 52.4337793 -21.39815918 51.86755859 -21.60327148 51.28417969 C-22.10036536 48.42214259 -21.50858345 47.09646693 -20.34765625 44.453125 C-19.98349609 43.60878906 -19.61933594 42.76445312 -19.24414062 41.89453125 C-18.85419922 41.02183594 -18.46425781 40.14914063 -18.0625 39.25 C-17.67642578 38.36183594 -17.29035156 37.47367188 -16.89257812 36.55859375 C-15.93849057 34.36772604 -14.97405887 32.18204402 -14 30 C-13 33 -13 33 -14 36 C-13.34 36 -12.68 36 -12 36 C-11.896875 35.17371094 -11.79375 34.34742188 -11.6875 33.49609375 C-10.75402076 28.74913967 -8.97655497 24.48315866 -7.171875 20.00976562 C-5.46193453 15.63852076 -4.48743626 11.67329517 -4 7 C-3.34 7 -2.68 7 -2 7 C-1.34 4.69 -0.68 2.38 0 0 Z M-14 41 C-13 43 -13 43 -13 43 Z M-15 45 C-14 47 -14 47 -14 47 Z M-16 47 C-15 50 -15 50 -15 50 Z M-30 75 C-29 77 -29 77 -29 77 Z M-34 88 C-33 91 -33 91 -33 91 Z " fill="#AFDDAF" transform="translate(348,94)"/>
<path d="M0 0 C2.0625 1.625 2.0625 1.625 4 4 C3.55410994 8.73758188 2.19310132 13.29627009 0.9375 17.875 C0.75123047 18.56335938 0.56496094 19.25171875 0.37304688 19.9609375 C-0.08205811 21.64132514 -0.54066678 23.32076322 -1 25 C-1.66 24.67 -2.32 24.34 -3 24 C-3.66 25.32 -4.32 26.64 -5 28 C-5.66 28 -6.32 28 -7 28 C-9.24538034 31.84344382 -10.1026736 35.9638019 -11.125 40.25 C-11.30675781 40.99507812 -11.48851562 41.74015625 -11.67578125 42.5078125 C-12.12147499 44.3375026 -12.56131959 46.16861575 -13 48 C-12.56042969 47.02804688 -12.12085938 46.05609375 -11.66796875 45.0546875 C-10 42 -10 42 -7.3125 41.125 C-6.549375 41.08375 -5.78625 41.0425 -5 41 C-5 43.97 -5 46.94 -5 50 C-5.66 49.01 -6.32 48.02 -7 47 C-7.5775 47.99 -8.155 48.98 -8.75 50 C-9.4925 50.99 -10.235 51.98 -11 53 C-12.32 53 -13.64 53 -15 53 C-15.99 56.63 -16.98 60.26 -18 64 C-16.02 61.36 -14.04 58.72 -12 56 C-10 60 -10 60 -10.64453125 62.0703125 C-11.22267578 63.08738281 -11.22267578 63.08738281 -11.8125 64.125 C-12.19019531 64.80820313 -12.56789063 65.49140625 -12.95703125 66.1953125 C-13.30121094 66.79085937 -13.64539063 67.38640625 -14 68 C-14.495 68.99 -14.495 68.99 -15 70 C-14.01 70 -13.02 70 -12 70 C-13.29960954 78.51468319 -18.91313424 84.35599263 -25.265625 89.78515625 C-27 91 -27 91 -29 91 C-28.82820114 83.76882984 -27.34353029 77.19961586 -25.22436523 70.32763672 C-23.11703667 63.48828293 -21.22708869 56.60009364 -19.375 49.6875 C-19.08608887 48.61491943 -18.79717773 47.54233887 -18.49951172 46.43725586 C-16.82835957 40.20183532 -15.22189296 33.9536997 -13.67797852 27.68554688 C-11.76609341 20.11236138 -9.35847547 13.05791292 -6 6 C-5.34 6.66 -4.68 7.32 -4 8 C-2.3372974 5.32521756 -1.00016187 3.0004856 0 0 Z M-2 7 C-2.33 8.32 -2.66 9.64 -3 11 C-1.68 11 -0.36 11 1 11 C1.33 10.01 1.66 9.02 2 8 C0.68 7.67 -0.64 7.34 -2 7 Z M-4 11 C-4.99 13.97 -5.98 16.94 -7 20 C-3.71185401 17.27393696 -3.71185401 17.27393696 -2.75 13.25 C-2.8325 12.5075 -2.915 11.765 -3 11 C-3.33 11 -3.66 11 -4 11 Z M-17 71 C-18.03319813 72.2608012 -19.05124379 73.53403258 -20.0625 74.8125 C-20.63097656 75.52019531 -21.19945312 76.22789062 -21.78515625 76.95703125 C-22.18605469 77.63121094 -22.58695312 78.30539063 -23 79 C-22.67 79.99 -22.34 80.98 -22 82 C-20.02 79.03 -18.04 76.06 -16 73 C-16.33 72.34 -16.66 71.68 -17 71 Z " fill="#CAE5CA" transform="translate(280,98)"/>
<path d="M0 0 C0.36488522 7.67880674 -1.01189095 14.36885414 -2.8125 21.8125 C-5.10767678 31.67504909 -7.00695777 41.46726086 -8.359375 51.5 C-8.79532127 54.72878274 -9.34759841 57.916705 -9.95703125 61.1171875 C-11.49279532 69.38181476 -12.41141687 77.738809 -13.41210938 86.08203125 C-14.30074307 93.08488965 -15.46668321 99.40327194 -18 106 C-18.66 106 -19.32 106 -20 106 C-20.63050195 93.83364757 -18.77831129 82.00266127 -17 70 C-16.85014648 68.9879248 -16.70029297 67.97584961 -16.54589844 66.93310547 C-6.49152348 0 -6.49152348 0 0 0 Z " fill="#CDE6CC" transform="translate(333,152)"/>
<path d="M0 0 C3 1 3 1 4 2 C6.31 1.34 8.62 0.68 11 0 C11.20086443 3.71599191 11.1519437 4.77208445 9 8 C8.731875 8.639375 8.46375 9.27875 8.1875 9.9375 C6.61560932 12.66762592 4.51351053 14.14793961 2 16 C2.24234375 16.57234375 2.4846875 17.1446875 2.734375 17.734375 C3 20 3 20 1.453125 22.140625 C0.72609375 22.83671875 -0.0009375 23.5328125 -0.75 24.25 C-1.46671875 24.95640625 -2.1834375 25.6628125 -2.921875 26.390625 C-5 28 -5 28 -8 28 C-7.42655063 25.13275314 -7.1385485 24.1385485 -5 22 C-5.99 21.67 -6.98 21.34 -8 21 C-7.43628586 17.73045798 -6.50037734 16.17424117 -4 14 C-4.66 12.68 -5.32 11.36 -6 10 C-5.34 9.34 -4.68 8.68 -4 8 C-4.66 6.68 -5.32 5.36 -6 4 C-5.01 4 -4.02 4 -3 4 C-3.33 4.66 -3.66 5.32 -4 6 C-1.7522025 3.94766315 -0.9977758 2.99332739 0 0 Z " fill="#D3E7D3" transform="translate(362,303)"/>
<path d="M0 0 C1.11328125 1.7421875 1.11328125 1.7421875 2 4 C1.35546875 6.0703125 1.35546875 6.0703125 0.1875 8.125 C-0.19019531 8.80820313 -0.56789063 9.49140625 -0.95703125 10.1953125 C-1.30121094 10.79085937 -1.64539063 11.38640625 -2 12 C-2.33 12.66 -2.66 13.32 -3 14 C-2.01 14 -1.02 14 0 14 C-1.29960954 22.51468319 -6.91313424 28.35599263 -13.265625 33.78515625 C-15 35 -15 35 -17 35 C-16.59248958 27.60860415 -15.41492814 21.00177279 -13 14 C-12.34 14 -11.68 14 -11 14 C-10.67 12.68 -10.34 11.36 -10 10 C-9.67 11.32 -9.34 12.64 -9 14 C-8.73316406 13.43667969 -8.46632813 12.87335938 -8.19140625 12.29296875 C-6.91879372 9.8437112 -5.47783 7.60217973 -3.9375 5.3125 C-3.41027344 4.52488281 -2.88304687 3.73726562 -2.33984375 2.92578125 C-1 1 -1 1 0 0 Z M-5 15 C-6.03319813 16.2608012 -7.05124379 17.53403258 -8.0625 18.8125 C-8.63097656 19.52019531 -9.19945312 20.22789062 -9.78515625 20.95703125 C-10.18605469 21.63121094 -10.58695312 22.30539063 -11 23 C-10.67 23.99 -10.34 24.98 -10 26 C-8.02 23.03 -6.04 20.06 -4 17 C-4.33 16.34 -4.66 15.68 -5 15 Z " fill="#D1E6D0" transform="translate(268,154)"/>
<path d="M0 0 C0.66 0 1.32 0 2 0 C3.23444647 3.7033394 2.48759386 5.35586743 1.375 8.96484375 C0.84895754 11.00583901 0.84895754 11.00583901 1.53125 13 C2.12986855 15.55410582 1.55803335 16.69560642 0.5 19.0625 C-1.0139736 22.38261759 -1.0139736 22.38261759 0 26 C-0.33 26.99 -0.66 27.98 -1 29 C-1.99 28.67 -2.98 28.34 -4 28 C-4.33 27.34 -4.66 26.68 -5 26 C-9.19724707 30.70542579 -9.19724707 30.70542579 -12.6875 35.9375 C-13.3371875 36.9584375 -13.3371875 36.9584375 -14 38 C-14.99 38 -15.98 38 -17 38 C-17.75032447 30.12159303 -13.10742893 26.11335585 -8.375 20.375 C-7.59898437 19.45460937 -6.82296875 18.53421875 -6.0234375 17.5859375 C-4.31556608 15.40329102 -2.98365531 13.57862183 -2 11 C-2.185625 10.21625 -2.37125 9.4325 -2.5625 8.625 C-3.16771695 4.99369827 -1.80647784 3.10714188 0 0 Z " fill="#CBE5CB" transform="translate(261,191)"/>
<path d="M0 0 C0.66 0.33 1.32 0.66 2 1 C-0.51876837 8.73955358 -3.30466009 16.37076876 -6.12695312 24.00390625 C-8.544343 30.59346428 -10.74114087 37.07627478 -12 44 C-11.34 44 -10.68 44 -10 44 C-10.73690113 50.48472993 -12.35318751 56.69239743 -14 63 C-14.66 61.68 -15.32 60.36 -16 59 C-16.66 59.99 -17.32 60.98 -18 62 C-17.67 59.03 -17.34 56.06 -17 53 C-16.34 53 -15.68 53 -15 53 C-15.66 50.36 -16.32 47.72 -17 45 C-17.4021875 46.2065625 -17.4021875 46.2065625 -17.8125 47.4375 C-18.4003125 48.7059375 -18.4003125 48.7059375 -19 50 C-20.485 50.495 -20.485 50.495 -22 51 C-20.033631 43.63011293 -17.30417422 36.86954798 -14 30 C-13 33 -13 33 -14 36 C-13.34 36 -12.68 36 -12 36 C-11.896875 35.17371094 -11.79375 34.34742188 -11.6875 33.49609375 C-10.75402076 28.74913967 -8.97655497 24.48315866 -7.171875 20.00976562 C-5.46193453 15.63852076 -4.48743626 11.67329517 -4 7 C-3.34 7 -2.68 7 -2 7 C-1.34 4.69 -0.68 2.38 0 0 Z M-14 41 C-13 43 -13 43 -13 43 Z M-15 45 C-14 47 -14 47 -14 47 Z " fill="#A8D5A6" transform="translate(348,94)"/>
<path d="M0 0 C0.99 0 1.98 0 3 0 C3.34855655 7.62951555 3.0017506 13.92444501 0 21 C-0.66 21 -1.32 21 -2 21 C-2 17.7 -2 14.4 -2 11 C-3.12837409 12.58093054 -4.25256518 14.16484716 -5.375 15.75 C-6.00148437 16.63171875 -6.62796875 17.5134375 -7.2734375 18.421875 C-8.71480941 20.57414979 -9.91498093 22.65460523 -11 25 C-12.32 25 -13.64 25 -15 25 C-14.29582736 17.48882518 -8.65513016 11.39299577 -4.375 5.5 C-3.61960938 4.4584375 -2.86421875 3.416875 -2.0859375 2.34375 C-1.39757812 1.5703125 -0.70921875 0.796875 0 0 Z " fill="#BFDCC0" transform="translate(257,221)"/>
<path d="M0 0 C2 3 2 3 1.70800781 4.88525391 C1.45889648 5.57538574 1.20978516 6.26551758 0.953125 6.9765625 C0.685 7.729375 0.416875 8.4821875 0.140625 9.2578125 C-0.15328125 10.03898437 -0.4471875 10.82015625 -0.75 11.625 C-1.0284375 12.41390625 -1.306875 13.2028125 -1.59375 14.015625 C-3.72321429 19.86160714 -3.72321429 19.86160714 -6 21 C-6 22.65 -6 24.3 -6 26 C-6.66 25.67 -7.32 25.34 -8 25 C-8.96305013 27.6650444 -9.92051716 30.33188751 -10.875 33 C-11.27912109 34.11568359 -11.27912109 34.11568359 -11.69140625 35.25390625 C-13.42732706 40.12295243 -14.82164705 44.96625926 -16 50 C-16.99 50 -17.98 50 -19 50 C-18.83922669 42.57519625 -17.39392863 36.69850793 -14.328125 29.94140625 C-12.70704913 26.35119998 -11.39434688 22.67606624 -10.08984375 18.9609375 C-9 17 -9 17 -6.98046875 15.9921875 C-4.83971185 15.16719135 -4.83971185 15.16719135 -4.0234375 13.046875 C-3.70246094 11.90992187 -3.70246094 11.90992187 -3.375 10.75 C-3.13910156 9.95207031 -2.90320313 9.15414062 -2.66015625 8.33203125 C-2.44230469 7.56246094 -2.22445313 6.79289062 -2 6 C-1 3 -1 3 0 0 Z " fill="#E0EFE0" transform="translate(355,88)"/>
<path d="M0 0 C0.66 0.66 1.32 1.32 2 2 C1.64638402 6.5970078 0.58012426 10.68099369 -1 15 C-0.34 15 0.32 15 1 15 C0.42100187 21.59525453 -0.79734737 27.6891618 -2.5625 34.0625 C-2.79646484 34.92810547 -3.03042969 35.79371094 -3.27148438 36.68554688 C-3.8417334 38.79197695 -4.42001834 40.89622889 -5 43 C-5.82441044 39.98777646 -5.99430872 37.95796195 -5.4375 34.875 C-5.293125 33.59625 -5.14875 32.3175 -5 31 C-5.66 30.34 -6.32 29.68 -7 29 C-6.625 26.875 -6.625 26.875 -6 25 C-6 25.66 -6 26.32 -6 27 C-5.34 27 -4.68 27 -4 27 C-4.21527344 25.71222656 -4.43054688 24.42445313 -4.65234375 23.09765625 C-5.24482144 17.76535706 -4.15803441 13.49905172 -2.5625 8.4375 C-2.31951172 7.61958984 -2.07652344 6.80167969 -1.82617188 5.95898438 C-1.23240912 3.96813278 -0.61832882 1.98335921 0 0 Z M-3 13 C-2 16 -2 16 -2 16 Z " fill="#AFD8AB" transform="translate(317,169)"/>
<path d="M0 0 C3 1 3 1 4 2 C6.31 1.34 8.62 0.68 11 0 C11.375 2.1875 11.375 2.1875 11 5 C7.20009476 8.98085311 4.62079741 10.59851447 -1 11 C-1 11.66 -1 12.32 -1 13 C-2.65 12.67 -4.3 12.34 -6 12 C-5.62875 11.4225 -5.2575 10.845 -4.875 10.25 C-3.70833333 8 -3.70833333 8 -4.875 5.75 C-5.24625 5.1725 -5.6175 4.595 -6 4 C-5.01 4 -4.02 4 -3 4 C-3.33 4.66 -3.66 5.32 -4 6 C-1.7522025 3.94766315 -0.9977758 2.99332739 0 0 Z " fill="#BEDEBD" transform="translate(362,303)"/>
<path d="M0 0 C0.99 0.33 1.98 0.66 3 1 C1.4805627 5.8603687 -1.32918654 9.06079356 -4.625 12.8125 C-5.140625 13.40998047 -5.65625 14.00746094 -6.1875 14.62304688 C-7.45246272 16.08712409 -8.72543834 17.54427155 -10 19 C-10.99 18.67 -11.98 18.34 -13 18 C-12.1464071 12.02484972 -9.53281812 7.94793837 -5 4 C-4.34 4 -3.68 4 -3 4 C-3 3.34 -3 2.68 -3 2 C-2.01 1.34 -1.02 0.68 0 0 Z " fill="#D7EDD6" transform="translate(261,183)"/>
<path d="M0 0 C0.66 0.33 1.32 0.66 2 1 C-0.51876837 8.73955358 -3.30466009 16.37076876 -6.12695312 24.00390625 C-8.544343 30.59346428 -10.74114087 37.07627478 -12 44 C-14 41 -14 41 -13.75 38.86328125 C-11.83756442 32.35900817 -9.59724412 26.03627686 -7.0703125 19.74731445 C-5.39203315 15.47187641 -4.48559842 11.57173144 -4 7 C-3.34 7 -2.68 7 -2 7 C-1.34 4.69 -0.68 2.38 0 0 Z " fill="#42A23F" transform="translate(348,94)"/>
<path d="M0 0 C0.99 0 1.98 0 3 0 C2.96970703 0.84594727 2.93941406 1.69189453 2.90820312 2.56347656 C2.79469941 5.76166208 2.68311762 8.95990783 2.57275391 12.15820312 C2.52499763 13.53127616 2.47651871 14.90432429 2.42724609 16.27734375 C2.11998564 24.85555403 1.92715258 33.41614533 2 42 C0 40 0 40 -0.22705078 36.74365234 C-0.22673382 35.35770705 -0.21541759 33.97173699 -0.1953125 32.5859375 C-0.1924826 31.85629791 -0.18965271 31.12665833 -0.18673706 30.37490845 C-0.17553002 28.04143972 -0.1504251 25.70835297 -0.125 23.375 C-0.11497085 21.79427637 -0.10584489 20.21354673 -0.09765625 18.6328125 C-0.07558905 14.75506086 -0.04105615 10.87759522 0 7 C-0.66 8.32 -1.32 9.64 -2 11 C-1.85892253 9.54119891 -1.71197585 8.08296449 -1.5625 6.625 C-1.48128906 5.81289063 -1.40007812 5.00078125 -1.31640625 4.1640625 C-1 2 -1 2 0 0 Z " fill="#5DAF5B" transform="translate(344,361)"/>
<path d="M0 0 C0.99 0.66 1.98 1.32 3 2 C2.56489253 5.11827017 2.07085107 7.82680849 0.875 10.75 C0.58625 11.4925 0.2975 12.235 0 13 C0.33 13.66 0.66 14.32 1 15 C0.06553465 17.03144641 -0.93224776 19.03533587 -2 21 C-2.68707555 18.50935112 -3 16.62113708 -3 14 C-3.66 16.31 -4.32 18.62 -5 21 C-7.12115604 17.58741458 -7.12115604 17.58741458 -6.58447266 14.98535156 C-6.2807373 14.2940918 -5.97700195 13.60283203 -5.6640625 12.890625 C-5.34179688 12.13652344 -5.01953125 11.38242188 -4.6875 10.60546875 C-4.1615625 9.43951172 -4.1615625 9.43951172 -3.625 8.25 C-3.28210938 7.45722656 -2.93921875 6.66445312 -2.5859375 5.84765625 C-1.73785363 3.89235178 -0.87072523 1.94532758 0 0 Z " fill="#A8D3A7" transform="translate(274,104)"/>
<path d="M0 0 C0.99 0 1.98 0 3 0 C2.13329546 6.35583327 1.06965872 12.67551301 0 19 C-0.99 19.33 -1.98 19.66 -3 20 C-3.08165496 17.79229195 -3.13948488 15.58369575 -3.1875 13.375 C-3.23970703 11.53035156 -3.23970703 11.53035156 -3.29296875 9.6484375 C-2.9787947 5.73592336 -1.96906533 3.35929782 0 0 Z " fill="#B2CFB0" transform="translate(247,248)"/>
<path d="M0 0 C1.65 0.33 3.3 0.66 5 1 C4.35346673 7.95023264 2.13972752 14.38177303 0 21 C-0.99 20.67 -1.98 20.34 -3 20 C-2.855625 19.443125 -2.71125 18.88625 -2.5625 18.3125 C-1.27978303 13.03910802 -0.9066476 8.41443919 -1 3 C-0.67 2.01 -0.34 1.02 0 0 Z " fill="#BDE1BC" transform="translate(319,164)"/>
<path d="M0 0 C-1.36792465 3.61522942 -2.95603254 6.95679266 -4.875 10.3125 C-5.36742187 11.19550781 -5.85984375 12.07851562 -6.3671875 12.98828125 C-6.90601563 13.65214844 -7.44484375 14.31601563 -8 15 C-9.32 15 -10.64 15 -12 15 C-11.4418109 10.3949399 -9.75357835 6.69271269 -7 3 C-2.93548387 0 -2.93548387 0 0 0 Z " fill="#CBDFC7" transform="translate(254,231)"/>
<path d="M0 0 C-0.71917603 0.42297363 -0.71917603 0.42297363 -1.45288086 0.85449219 C-3.62230862 2.14019601 -5.77978721 3.44473958 -7.9375 4.75 C-9.06961914 5.41515625 -9.06961914 5.41515625 -10.22460938 6.09375 C-10.94326172 6.53203125 -11.66191406 6.9703125 -12.40234375 7.421875 C-13.06741943 7.81987305 -13.73249512 8.21787109 -14.41772461 8.62792969 C-16.36882669 10.31982812 -16.49870678 11.52094592 -17 14 C-18.8125 15.3125 -18.8125 15.3125 -21 16 C-23.25 15.625 -23.25 15.625 -25 15 C-19.98164205 9.47980626 -7.64369917 -2.54789972 0 0 Z " fill="#60B557" transform="translate(97,439)"/>
<path d="M0 0 C0 2.97 0 5.94 0 9 C-0.66 8.01 -1.32 7.02 -2 6 C-2.598125 6.99 -3.19625 7.98 -3.8125 9 C-4.534375 9.99 -5.25625 10.98 -6 12 C-6.99 12 -7.98 12 -9 12 C-8.39288519 7.87161932 -7.12477683 4.59577618 -5 1 C-2 0 -2 0 0 0 Z " fill="#B5D7B3" transform="translate(275,139)"/>
<path d="M0 0 C2.59473029 3.89209544 3.76633549 7.88181064 5.1875 12.3125 C5.61579102 13.57610352 5.61579102 13.57610352 6.05273438 14.86523438 C7.58169773 19.62324931 8.40203133 23.03210865 7 28 C6.67 28 6.34 28 6 28 C5.89042969 27.38253906 5.78085938 26.76507813 5.66796875 26.12890625 C4.85244831 21.77283368 3.94177827 17.61113482 2.4375 13.4375 C0.85514046 8.96213968 0.37493612 4.72419515 0 0 Z " fill="#2D9B2B" transform="translate(189,320)"/>
<path d="M0 0 C2 3 2 3 1.72387695 4.88525391 C1.35975708 5.92045166 1.35975708 5.92045166 0.98828125 6.9765625 C0.72466797 7.729375 0.46105469 8.4821875 0.18945312 9.2578125 C-0.09994141 10.03898437 -0.38933594 10.82015625 -0.6875 11.625 C-0.95755859 12.41390625 -1.22761719 13.2028125 -1.50585938 14.015625 C-3.07048732 18.36222866 -3.07048732 18.36222866 -4 20 C-4.99 20.33 -5.98 20.66 -7 21 C-6.38169051 15.97525707 -4.87023224 11.75279506 -2.9375 7.125 C-2.65583984 6.43664062 -2.37417969 5.74828125 -2.08398438 5.0390625 C-1.39484734 3.35710091 -0.69819202 1.67822303 0 0 Z " fill="#5AB659" transform="translate(355,88)"/>
<path d="M0 0 C0.66 0.99 1.32 1.98 2 3 C1.375 6.125 1.375 6.125 0 9 C-2.125 9.875 -2.125 9.875 -4 10 C-5.125 4.375 -5.125 4.375 -4 1 C-1.9375 0.3125 -1.9375 0.3125 0 0 Z " fill="#BDE1BD" transform="translate(325,156)"/>
<path d="M0 0 C0.66 0.33 1.32 0.66 2 1 C1.70381606 4.55420724 1.19662957 5.80337043 -1.375 8.375 C-2.24125 8.91125 -3.1075 9.4475 -4 10 C-4.99 9.67 -5.98 9.34 -7 9 C-6.2265625 7.824375 -6.2265625 7.824375 -5.4375 6.625 C-4.963125 5.75875 -4.48875 4.8925 -4 4 C-4.33 3.34 -4.66 2.68 -5 2 C-2.625 0.9375 -2.625 0.9375 0 0 Z " fill="#97D098" transform="translate(371,303)"/>
<path d="M0 0 C-1 3 -1 3 -3.125 4.625 C-6.43781262 6.20938865 -9.36260716 6.64339286 -13 7 C-12.73828125 5.109375 -12.73828125 5.109375 -12 3 C-10.29296875 1.953125 -10.29296875 1.953125 -8.1875 1.25 C-7.15689453 0.88648438 -7.15689453 0.88648438 -6.10546875 0.515625 C-4 0 -4 0 0 0 Z " fill="#F6FAF7" transform="translate(376,299)"/>
<path d="M0 0 C0.66 0.33 1.32 0.66 2 1 C2.7013284 3.32315031 3.36485174 5.65789079 4 8 C4.62469505 9.35350594 5.2716331 10.69934483 6 12 C4.35 12.33 2.7 12.66 1 13 C-0.76462683 9.91190305 -1 8.76687864 -1 5 C-0.34 5 0.32 5 1 5 C0.67 3.35 0.34 1.7 0 0 Z " fill="#74B773" transform="translate(149,354)"/>
<path d="M0 0 C1.29926277 4.20767812 0.34942152 6.41775898 -1.3125 10.5 C-1.76238281 11.6240625 -2.21226562 12.748125 -2.67578125 13.90625 C-3.71047697 16.32359222 -4.78394568 18.6706565 -6 21 C-7.10861925 17.72234308 -6.92934526 16.04690481 -5.56640625 12.890625 C-5.24736328 12.13652344 -4.92832031 11.38242188 -4.59960938 10.60546875 C-4.08624023 9.43951172 -4.08624023 9.43951172 -3.5625 8.25 C-3.22412109 7.45722656 -2.88574219 6.66445312 -2.53710938 5.84765625 C-1.70154018 3.89407194 -0.85209558 1.9464328 0 0 Z " fill="#54AE4C" transform="translate(274,104)"/>
<path d="M0 0 C0.33 0 0.66 0 1 0 C1.33 2.97 1.66 5.94 2 9 C1.34 8.67 0.68 8.34 0 8 C-0.66 10.31 -1.32 12.62 -2 15 C-3.0013988 11.99580359 -3.51421457 9.12290635 -4 6 C-3.34 6 -2.68 6 -2 6 C-1.855625 5.195625 -1.71125 4.39125 -1.5625 3.5625 C-1 1 -1 1 0 0 Z " fill="#B8DCB8" transform="translate(331,138)"/>
<path d="M0 0 C2.0625 1.625 2.0625 1.625 4 4 C3.85205998 7.6985004 3.64194427 9.35805573 1 12 C1 11.01 1 10.02 1 9 C-0.32 8.67 -1.64 8.34 -3 8 C-1.125 1.125 -1.125 1.125 0 0 Z " fill="#90C38C" transform="translate(280,98)"/>
<path d="M0 0 C0.99 0.33 1.98 0.66 3 1 C2.47462276 6.0302076 1.89405214 11.01885239 1 16 C0.67 16 0.34 16 0 16 C0 12.04 0 8.08 0 4 C-0.66 5.32 -1.32 6.64 -2 8 C-1.125 1.125 -1.125 1.125 0 0 Z " fill="#A1D19F" transform="translate(358,347)"/>
<path d="M0 0 C0.99 0 1.98 0 3 0 C2.75 3.375 2.75 3.375 2 7 C-0.0625 8.4375 -0.0625 8.4375 -2 9 C-1.125 2.25 -1.125 2.25 0 0 Z " fill="#C0D8BD" transform="translate(250,203)"/>
<path d="M0 0 C0.99 0.33 1.98 0.66 3 1 C2 3 2 3 0.203125 3.8671875 C-2.47017647 5.24175741 -4.16385654 6.96931843 -6.25 9.125 C-6.95640625 9.84945312 -7.6628125 10.57390625 -8.390625 11.3203125 C-8.92171875 11.87460938 -9.4528125 12.42890625 -10 13 C-10 8.68381834 -7.86729652 7.07210341 -5 4 C-4.34 4 -3.68 4 -3 4 C-3 3.34 -3 2.68 -3 2 C-2.01 1.34 -1.02 0.68 0 0 Z " fill="#B4DCB4" transform="translate(261,183)"/>
<path d="M0 0 C0.66 0.66 1.32 1.32 2 2 C1.61765316 6.87492223 0.4234304 11.35012736 -1 16 C-3 13 -3 13 -2.79296875 10.87890625 C-2.59316406 10.11449219 -2.39335937 9.35007813 -2.1875 8.5625 C-1.99542969 7.80066406 -1.80335938 7.03882813 -1.60546875 6.25390625 C-1.40566406 5.51011719 -1.20585937 4.76632813 -1 4 C-0.66505855 2.66706973 -0.33118813 1.3338678 0 0 Z " fill="#84C47F" transform="translate(317,169)"/>
<path d="M0 0 C1.25360525 3.76081574 0.83902226 6.15448132 0 10 C-0.99 10.66 -1.98 11.32 -3 12 C-3 10.35 -3 8.7 -3 7 C-3.66 7.99 -4.32 8.98 -5 10 C-4.67 7.69 -4.34 5.38 -4 3 C-2.68 2.67 -1.36 2.34 0 2 C0 1.34 0 0.68 0 0 Z " fill="#99CD97" transform="translate(261,158)"/>
<path d="M0 0 C0.99 0 1.98 0 3 0 C2.42073787 3.53819573 1.15676523 5.25028243 -1.375 7.75 C-1.98085938 8.36359375 -2.58671875 8.9771875 -3.2109375 9.609375 C-5 11 -5 11 -8 11 C-7.67 9.68 -7.34 8.36 -7 7 C-6.13375 6.87625 -6.13375 6.87625 -5.25 6.75 C-2.3840696 5.79468987 -1.0009236 4.21530827 1 2 C0.67 1.34 0.34 0.68 0 0 Z " fill="#93BC8D" transform="translate(362,320)"/>
<path d="M0 0 C0.33 0 0.66 0 1 0 C0.67 4.95 0.34 9.9 0 15 C-0.99 14.67 -1.98 14.34 -3 14 C-2.58846263 9.02906176 -2.20399168 4.55491614 0 0 Z " fill="#FEFEFA" transform="translate(312,199)"/>
<path d="M0 0 C0.66 0 1.32 0 2 0 C3 3 3 3 1.75 6.125 C0 9 0 9 -3 10 C-2.49287967 6.28111761 -1.88391785 3.26545761 0 0 Z " fill="#DBECDB" transform="translate(261,191)"/>
<path d="M0 0 C0.99 0 1.98 0 3 0 C2.25 4.75 2.25 4.75 0 7 C-0.66 7 -1.32 7 -2 7 C-2.99 7.66 -3.98 8.32 -5 9 C-3.76067171 5.56801397 -2.49698489 2.69674368 0 0 Z " fill="#BED6BA" transform="translate(265,168)"/>
<path d="M0 0 C0.33 0 0.66 0 1 0 C1.25 6.625 1.25 6.625 -1 10 C-1.66 9.67 -2.32 9.34 -3 9 C-2.5020163 5.26512223 -2.12508244 3.18762365 0 0 Z " fill="#E8F2E6" transform="translate(319,175)"/>
<path d="M0 0 C0.33 0.66 0.66 1.32 1 2 C-0.21484375 4.8203125 -0.21484375 4.8203125 -1.9375 8.125 C-2.50339844 9.22070312 -3.06929688 10.31640625 -3.65234375 11.4453125 C-4.09707031 12.28835937 -4.54179687 13.13140625 -5 14 C-6 11 -6 11 -5.0390625 8.5546875 C-4.57242187 7.67039062 -4.10578125 6.78609375 -3.625 5.875 C-3.16351563 4.98554687 -2.70203125 4.09609375 -2.2265625 3.1796875 C-1 1 -1 1 0 0 Z " fill="#FEFEFF" transform="translate(281,93)"/>
<path d="M0 0 C0.33 0 0.66 0 1 0 C0.40380045 4.86896303 -0.56976822 9.32790951 -2 14 C-2.66 13.67 -3.32 13.34 -4 13 C-3.52343588 11.20763933 -3.04366502 9.41613103 -2.5625 7.625 C-2.29566406 6.62726563 -2.02882813 5.62953125 -1.75390625 4.6015625 C-1 2 -1 2 0 0 Z " fill="#55BD50" transform="translate(360,89)"/>
<path d="M0 0 C2 1.3125 2 1.3125 4 3 C4 3.99 4 4.98 4 6 C2.02 6.99 2.02 6.99 0 8 C-0.79953138 4.71303767 -1.09658936 3.28976808 0 0 Z " fill="#B8DFB6" transform="translate(151,364)"/>
<path d="M0 0 C1.12758089 3.38274266 0.81750262 4.76778223 0.0625 8.1875 C-0.13214844 9.08855469 -0.32679688 9.98960937 -0.52734375 10.91796875 C-0.68332031 11.60503906 -0.83929688 12.29210937 -1 13 C-3 10 -3 10 -2.79296875 7.7734375 C-2.59316406 6.98195312 -2.39335937 6.19046875 -2.1875 5.375 C-1.99542969 4.57835937 -1.80335938 3.78171875 -1.60546875 2.9609375 C-1 1 -1 1 0 0 Z " fill="#70BD6C" transform="translate(337,125)"/>
<path d="M0 0 C0.99 0.33 1.98 0.66 3 1 C1.73058503 4.91402949 0.48832306 6.79072873 -3 9 C-2.01 6.03 -1.02 3.06 0 0 Z " fill="#CBE3C1" transform="translate(278,108)"/>
<path d="M0 0 C2 6 2 6 1 9 C0.01 8.67 -0.98 8.34 -2 8 C-2.125 5.125 -2.125 5.125 -2 2 C-1.34 1.34 -0.68 0.68 0 0 Z " fill="#7BAF7D" transform="translate(259,211)"/>
<path d="M0 0 C0.66 0.99 1.32 1.98 2 3 C2.66 3 3.32 3 4 3 C3.45773019 6.79588866 1.79872437 8.47211993 -1 11 C-0.62875 10.2575 -0.2575 9.515 0.125 8.75 C1.30973248 6.06410301 1.30973248 6.06410301 0.0625 3.8125 C-0.288125 3.214375 -0.63875 2.61625 -1 2 C-0.67 1.34 -0.34 0.68 0 0 Z " fill="#85BA85" transform="translate(273,128)"/>
<path d="M0 0 C0.66 0.33 1.32 0.66 2 1 C2.59355614 3.64860427 2.74209269 6.29197322 3 9 C2.34 8.67 1.68 8.34 1 8 C1 7.01 1 6.02 1 5 C0.34 5 -0.32 5 -1 5 C-0.67 3.35 -0.34 1.7 0 0 Z " fill="#FBFEFC" transform="translate(202,358)"/>
<path d="M0 0 C2.40820361 2.40820361 2.68097423 3.65022937 3 7 C2.015625 9.1640625 2.015625 9.1640625 1 11 C0.63890458 9.35567294 0.28629924 7.7094792 -0.0625 6.0625 C-0.25972656 5.14597656 -0.45695313 4.22945313 -0.66015625 3.28515625 C-0.77230469 2.53105469 -0.88445312 1.77695312 -1 1 C-0.67 0.67 -0.34 0.34 0 0 Z " fill="#74C574" transform="translate(194,337)"/>
<path d="M0 0 C2.26609984 4.53219967 1.92735976 6.17772925 1 11 C0.34 10.67 -0.32 10.34 -1 10 C-0.67 6.7 -0.34 3.4 0 0 Z " fill="#7ECA73" transform="translate(307,205)"/>
<path d="M0 0 C0.66 0.33 1.32 0.66 2 1 C1.01 3.97 0.02 6.94 -1 10 C-2.31223496 6.06329512 -1.24296256 3.87511856 0 0 Z " fill="#68C568" transform="translate(348,94)"/>
<path d="M0 0 C0.6875 1.6875 0.6875 1.6875 1 4 C-0.4375 6.75 -0.4375 6.75 -2 9 C-2.6875 7.3125 -2.6875 7.3125 -3 5 C-1.5625 2.25 -1.5625 2.25 0 0 Z " fill="#FEFEFF" transform="translate(284,93)"/>
<path d="M0 0 C0.99 0 1.98 0 3 0 C2.01 2.97 1.02 5.94 0 9 C-0.33 9 -0.66 9 -1 9 C-0.67 6.03 -0.34 3.06 0 0 Z " fill="#C1DDBD" transform="translate(343,363)"/>
<path d="" fill="#FFFFFF" transform="translate(0,0)"/>
<path d="" fill="#FFFFFF" transform="translate(0,0)"/>
<path d="" fill="#FFFFFF" transform="translate(0,0)"/>
<path d="" fill="#FFFFFF" transform="translate(0,0)"/>
<path d="" fill="#FFFFFF" transform="translate(0,0)"/>
<path d="" fill="#FFFFFF" transform="translate(0,0)"/>
<path d="" fill="#FFFFFF" transform="translate(0,0)"/>
<path d="" fill="#FFFFFF" transform="translate(0,0)"/>
<path d="" fill="#FFFFFF" transform="translate(0,0)"/>
<path d="" fill="#FFFFFF" transform="translate(0,0)"/>
<path d="" fill="#FFFFFF" transform="translate(0,0)"/>
<path d="" fill="#FFFFFF" transform="translate(0,0)"/>
<path d="" fill="#FFFFFF" transform="translate(0,0)"/>
<path d="" fill="#FFFFFF" transform="translate(0,0)"/>
<path d="" fill="#FFFFFF" transform="translate(0,0)"/>
<path d="" fill="#FFFFFF" transform="translate(0,0)"/>
<path d="" fill="#FFFFFF" transform="translate(0,0)"/>
<path d="" fill="#FFFFFF" transform="translate(0,0)"/>
<path d="" fill="#FFFFFF" transform="translate(0,0)"/>
<path d="" fill="#FFFFFF" transform="translate(0,0)"/>
<path d="" fill="#FFFFFF" transform="translate(0,0)"/>
<path d="" fill="#FFFFFF" transform="translate(0,0)"/>
<path d="" fill="#FFFFFF" transform="translate(0,0)"/>
<path d="" fill="#FFFFFF" transform="translate(0,0)"/>
<path d="" fill="#FFFFFF" transform="translate(0,0)"/>
<path d="" fill="#FFFFFF" transform="translate(0,0)"/>
<path d="" fill="#FFFFFF" transform="translate(0,0)"/>
<path d="" fill="#FFFFFF" transform="translate(0,0)"/>
<path d="" fill="#FFFFFF" transform="translate(0,0)"/>
<path d="" fill="#FFFFFF" transform="translate(0,0)"/>
<path d="" fill="#FFFFFF" transform="translate(0,0)"/>
<path d="" fill="#FFFFFF" transform="translate(0,0)"/>
<path d="" fill="#FFFFFF" transform="translate(0,0)"/>
<path d="" fill="#FFFFFF" transform="translate(0,0)"/>
<path d="" fill="#FFFFFF" transform="translate(0,0)"/>
<path d="" fill="#FFFFFF" transform="translate(0,0)"/>
<path d="" fill="#FFFFFF" transform="translate(0,0)"/>
<path d="" fill="#FFFFFF" transform="translate(0,0)"/>
<path d="" fill="#FFFFFF" transform="translate(0,0)"/>
<path d="" fill="#FFFFFF" transform="translate(0,0)"/>
<path d="" fill="#FFFFFF" transform="translate(0,0)"/>
<path d="" fill="#FFFFFF" transform="translate(0,0)"/>
<path d="" fill="#FFFFFF" transform="translate(0,0)"/>
<path d="" fill="#FFFFFF" transform="translate(0,0)"/>
<path d="" fill="#FFFFFF" transform="translate(0,0)"/>
<path d="" fill="#FFFFFF" transform="translate(0,0)"/>
<path d="" fill="#FFFFFF" transform="translate(0,0)"/>
<path d="" fill="#FFFFFF" transform="translate(0,0)"/>
<path d="" fill="#FFFFFF" transform="translate(0,0)"/>
<path d="" fill="#FFFFFF" transform="translate(0,0)"/>
<path d="" fill="#FFFFFF" transform="translate(0,0)"/>
<path d="" fill="#FFFFFF" transform="translate(0,0)"/>
</svg>
